<svg xmlns="http://www.w3.org/2000/svg" viewBox="0 0 817.98 374.83"><defs><style>.cls-1{fill:#e8eddf;}</style></defs><g id="圖層_2" data-name="圖層 2"><g id="圖層_1-2" data-name="圖層 1"><path class="cls-1" d="M516.68,124.61A48.89,48.89,0,0,1,508,153.17a46.82,46.82,0,0,1-22.56,18q-12.74,5-47.3,5H361.82V0h82.83q17.3,0,26.41,2.16Q486.42,5,495.55,14.41q13,13.2,13,31.21A35.46,35.46,0,0,1,501.31,67a37.51,37.51,0,0,1-21.85,14.64Q516.67,88.11,516.68,124.61Zm-55.7-73q0-10.8-10.08-13.44-4.81-1.44-22.09-1.45h-19v31h20.41q15.6,0,20.65-1.69Q461,62.92,461,51.62Zm6.48,69.14q0-12.24-11.28-15.84-6-2.16-21.13-2.16H409.84v35.77H437q14.4,0,19.93-1.92Q467.46,132.77,467.46,120.76Z"/><path class="cls-1" d="M664.08,176H622.79V160.14q-14.4,18-42,18A43.74,43.74,0,0,1,557,171.66q-9.12-5.76-12.72-14.16-5.77-12.48-5.77-28.81V48.74h44.9V112.6q0,14.9,1.68,20.41,3.36,10.32,13.93,10.32,11,0,17.28-10.32,3.36-5.76,3.36-26.65V48.74h44.41Z"/><path class="cls-1" d="M818,48.5,771.4,177.9q-9.6,26.41-17.52,35.3-12.74,14.16-36.74,14.16-10.56,0-28.32-3.12l-3.61-33.61a80.35,80.35,0,0,0,20.89,2.64q13.92,0,20.41-18.25L677.05,48.5h46.82l25.69,80.67L773.8,48.5Z"/><path class="cls-1" d="M463.51,262H399.93v24.51H454.7v29.3H399.93v56.88H361.82V232.16H463.51Z"/><path class="cls-1" d="M515.6,372.72H482.66V232.16H515.6Z"/><path class="cls-1" d="M644.86,321.4q0,21.45-13,36.19-15.14,17.24-42.32,17.24-26.06,0-41.17-15.9-14.18-14.55-14.18-37t14-37.34q14.94-16.1,41.17-16.09,27.39,0,42.52,17Q644.86,300.14,644.86,321.4Zm-36,.38q0-10.92-4.41-18-5-7.84-14.74-7.85a17.23,17.23,0,0,0-13.79,6.32q-5.74,6.88-5.74,19.72,0,11.49,5.17,18.58,4.78,7.08,14.36,7.08a16.69,16.69,0,0,0,13.4-6.13Q608.86,334.62,608.86,321.78Z"/><path class="cls-1" d="M818,271,782.55,372.72H750.76l-17-56.88-16.85,56.88H684.69L649.46,271h35l16.09,58,16.85-57.84H749.8l17.43,58.22L782.93,271Z"/><path class="cls-1" d="M158.71,315.35A272,272,0,0,1,101.48,321c-26,0-39.2-5.41-39.2-16.06,0-1.64.62-6.76,4.7-22.53L89.9,194.11c2-7.59,2.94-13,2.94-16.47a14.78,14.78,0,0,0-.76-4.67c12.28-3.28,18.4-4,21.43-4,4.47,0,4.57,1.34,4.58,3.21-.09.76-.73,4.35-5.19,20.7l-21.3,82c-3.35,13.31-3.74,17.74-3.74,19.92,0,21.21,33.5,21.21,44.51,21.21a127.49,127.49,0,0,0,25.93-2.54Z"/><path class="cls-1" d="M242.27,254c0,17.73-13.35,33.34-39.68,46.39A185.64,185.64,0,0,1,160.37,315h0l-1.62.35h0l-.41-2,1.62-.35A96.89,96.89,0,0,0,190.12,301c16.88-10.47,25.44-23.48,25.44-38.68,0-12.17-5.06-21.84-15.05-28.72-9.22-6.35-23.78-11.06-44.51-14.38l-1.27-.2-1.22.38a73.42,73.42,0,0,1-21.46,3c-.83,0-1.75,0-2.74-.12,2.1-4.21,4.43-7.17,7-8.83s8.15-3.71,19.84-3.71c2.69,0,6.25.12,10.58.36l1.59.09.47-.26.93-.53.38.81-.91.43,16.07,3.34c18.31,3.81,32.76,9.56,42.95,17.1C237.66,238,242.27,245.55,242.27,254Z"/><path class="cls-1" d="M299.26,295.69c-.6-12.49-2.05-24.94-3.07-37.44-.66-8-1.17-16.09-1.84-24.15-1-12.33-2.17-24.64-3.18-37-1-11.8-1.76-23.61-2.7-35.4-1-12.77-2.11-25.52-3.19-38.28-.82-9.7-1.56-19.41-2.58-29.1-.52-5-5-8.6-10.14-8.62-12.15,0-24.3,0-36.45,0h-4C231.67,37.15,199,0,150.59,0S69.51,37.15,69.1,85.71h-4c-12.15,0-24.3,0-36.45,0-5.15,0-9.62,3.62-10.14,8.62-1,9.69-1.76,19.4-2.58,29.1-1.08,12.76-2.17,25.51-3.19,38.28-.94,11.79-1.74,23.6-2.7,35.4-1,12.33-2.15,24.64-3.17,37-.67,8.06-1.19,16.11-1.85,24.15-1,12.5-2.47,24.95-3.07,37.44-.62,12.85-3.71,25.62-.4,38.6C7.07,356.08,25.15,372,47.5,374c5.27.47,10.58.75,15.86.77l87.23.08,87.22-.08c5.28,0,10.59-.3,15.86-.77,22.35-2,40.43-17.9,46-39.69C303,321.31,299.88,308.54,299.26,295.69ZM124,30.14a63.3,63.3,0,0,1,26.55-6.81,63.29,63.29,0,0,1,26.54,6.81c22.09,10.78,29.68,31.34,30.3,55.42H93.74C94.36,61.48,102,40.92,124,30.14ZM276,326.56c-1.28,14.85-15.08,24-29.32,23.94q-48.08,0-96.13,0t-96.14,0c-14.24,0-28-9.09-29.32-23.94-.73-8.52-.31-17.19.21-25.77.75-12.48,2.06-24.94,3.11-37.4.48-5.66.94-11.33,1.42-17l0-.53.57-6.85.07-.89a40.72,40.72,0,0,1,.48-6l3-37.06a21,21,0,0,1,6.15-13.23A166.24,166.24,0,0,1,68.6,160c6.4-4,12.22-6.75,16.47-7.9A184.36,184.36,0,0,1,156.75,138c16,0,27.79,2,36.12,6.22,9.32,4.69,14.24,12.23,14.24,21.83,0,15-12.24,29.15-37.43,43.28l.38.81L184,203.56c30.59-14.46,46.1-29.56,46.1-44.85,0-7.31-5.06-13.26-15.47-18.2-11.61-5.52-27.25-8.32-46.48-8.32-33.95,0-65.62,5.45-94.14,16.19l-2.62,1C59,154.27,45.48,161,36.31,167.76c.73-8,1.49-16.08,2.18-24.13.93-11.07,1.72-22.15,2.6-33.4h219c.87,11.25,1.66,22.33,2.59,33.4,1,11.64,2.15,23.27,3.14,34.91.71,8.31,1.21,16.66,1.88,25,1,12,2,24.1,3,36.15.67,7.91,1.31,15.81,2,23.72,1.06,12.46,2.36,24.92,3.11,37.4C276.35,309.37,276.78,318,276,326.56Z"/></g></g></svg>